<svg width="278" height="204" viewBox="0 0 278 204" fill="none" xmlns="http://www.w3.org/2000/svg">
<path d="M135.332 0.000781436C142.112 -0.0402265 148.805 1.53332 154.857 4.59144C159.332 6.93176 163.342 10.0704 166.69 13.8527C169.569 17.0034 172.75 19.8643 176.186 22.3944C181.924 26.6077 188.264 29.9319 194.992 32.2553C198.148 33.4013 201.451 34.1475 204.508 35.5867C209.989 38.1452 214.077 41.943 215.356 48.1194C215.927 51.1136 215.877 54.1933 215.209 57.1675C214.224 62.018 212.759 66.7419 211.327 71.4725C209.629 77.1042 207.617 82.6363 205.3 88.0428C203.756 91.6274 202.064 95.152 200.712 98.8298C198.759 104.349 197.361 110.05 196.537 115.847C195.738 120.984 195.491 126.181 194.919 131.344C194.399 135.968 193.087 140.366 189.511 143.69C187.519 145.468 185.025 146.583 182.373 146.882C177.818 147.548 173.449 146.422 169.054 145.436C160.857 143.577 152.673 141.705 144.535 139.593C138.941 138.14 133.374 136.561 127.661 135.595C123.718 134.929 119.743 134.456 115.761 134.069C110.52 133.563 105.252 133.556 100.018 133.057C91.9832 132.342 84.3218 129.335 77.9429 124.395C73.259 120.92 69.2564 116.611 66.1361 111.682C63.8643 108.058 62.4751 103.95 62.0806 99.6893C61.6802 94.2266 62.7761 88.7579 65.2504 83.8719C68.4935 77.0425 71.9696 70.3198 74.6932 63.2506C76.9975 57.3484 78.9193 51.3039 80.4468 45.1545C82.2389 37.6132 85.4825 30.4935 89.9961 24.1933C93.3137 19.6073 97.2208 15.4786 101.616 11.9138C109.311 5.48933 118.735 1.48786 128.699 0.413871C130.899 0.134429 133.115 -0.00354857 135.332 0.000781436Z" fill="#F8E4EB"/>
<path d="M191.792 36.5217L192.871 134.485C192.873 135.19 192.598 135.868 192.104 136.372C191.61 136.876 190.937 137.165 190.231 137.177L98.8711 138.169C98.5208 138.173 98.1731 138.108 97.848 137.977C97.5229 137.847 97.2267 137.654 96.9763 137.409C96.726 137.164 96.5263 136.873 96.3888 136.551C96.2513 136.229 96.1786 135.884 96.1749 135.534L94.9167 20.5865C94.9091 19.8816 95.1816 19.2025 95.6746 18.6979C96.1676 18.1933 96.8407 17.9044 97.5466 17.8944L171.887 17.082L178.292 23.3352L185.132 30.0135L191.792 36.5217Z" fill="#CFDCE9"/>
<path d="M174.594 19.5273L181.434 26.2051L187.945 32.5674L189.021 130.325C189.023 130.897 188.798 131.447 188.397 131.855C188.046 132.214 187.582 132.44 187.087 132.497L186.873 132.512L95.5166 133.503L95.3037 133.495C95.0917 133.477 94.8827 133.427 94.6846 133.348C94.4205 133.242 94.1799 133.084 93.9766 132.886C93.7731 132.687 93.6107 132.45 93.499 132.188C93.4153 131.992 93.362 131.785 93.3389 131.574L93.3262 131.362L92.0674 16.415C92.0612 15.8427 92.2831 15.2908 92.6836 14.8809C93.084 14.4713 93.6306 14.2367 94.2041 14.2285L94.2031 14.2275L168.336 13.418L174.594 19.5273Z" fill="white" stroke="#F5F5F5"/>
<g style="mix-blend-mode:multiply" opacity="0.25">
<path d="M169.702 31.2324C170.043 31.5725 170.648 33.8962 188.472 34.888V32.3565L169.702 31.2324Z" fill="#3A7EC1"/>
</g>
<path d="M168.709 28.7096C168.726 29.7335 169.147 30.7093 169.88 31.4255C170.613 32.1416 171.6 32.5403 172.625 32.5352L188.443 32.3557L168.576 12.916L168.709 28.7096Z" fill="#ECF3FE"/>
<path d="M151.287 29.2277L102.566 29.7485C102.153 29.753 101.744 29.6781 101.362 29.5279C100.979 29.3777 100.63 29.1552 100.335 28.8731C100.041 28.591 99.8054 28.2548 99.6434 27.8837C99.4813 27.5127 99.3955 27.114 99.3908 26.7105C99.3861 26.3069 99.4628 25.9065 99.6162 25.5319C99.7697 25.1573 99.997 24.816 100.285 24.5275C100.573 24.2389 100.917 24.0088 101.296 23.8502C101.675 23.6915 102.082 23.6075 102.495 23.603L151.216 23.0822C151.628 23.0776 152.037 23.1526 152.42 23.3028C152.803 23.453 153.151 23.6755 153.446 23.9576C153.741 24.2397 153.976 24.5759 154.138 24.947C154.3 25.318 154.386 25.7167 154.391 26.1202C154.395 26.9338 154.072 27.7165 153.491 28.2982C152.91 28.88 152.118 29.214 151.287 29.2277Z" fill="url(#paint0_linear_1729_6729)"/>
<path d="M125.237 83.6272L101.671 83.8917C101.228 83.8918 100.803 83.7188 100.487 83.4099C100.17 83.1009 99.9875 82.6805 99.9776 82.2386C99.975 81.7943 100.149 81.3671 100.461 81.0502C100.773 80.7334 101.198 80.5528 101.643 80.5478L125.199 80.2833C125.419 80.2808 125.637 80.3216 125.842 80.4033C126.046 80.485 126.232 80.6061 126.389 80.7596C126.546 80.9131 126.672 81.096 126.758 81.298C126.844 81.4999 126.89 81.7168 126.893 81.9363C126.895 82.1559 126.854 82.3738 126.773 82.5776C126.691 82.7814 126.569 82.9671 126.416 83.1242C126.262 83.2812 126.079 83.4064 125.876 83.4927C125.674 83.579 125.457 83.6247 125.237 83.6272Z" fill="#ECF3FE"/>
<path d="M180.496 90.6096L111.5 91.3653C111.28 91.3678 111.062 91.327 110.858 91.2453C110.654 91.1635 110.468 91.0425 110.311 90.889C110.153 90.7355 110.028 90.5525 109.941 90.3506C109.855 90.1487 109.809 89.9318 109.807 89.7122C109.804 89.4927 109.845 89.2748 109.927 89.071C110.009 88.8672 110.13 88.6815 110.284 88.5244C110.438 88.3674 110.621 88.2422 110.823 88.1559C111.025 88.0696 111.242 88.0239 111.462 88.0214L180.458 87.2657C180.678 87.2632 180.896 87.304 181.1 87.3858C181.304 87.4675 181.49 87.5886 181.647 87.7421C181.805 87.8956 181.93 88.0785 182.016 88.2804C182.103 88.4823 182.149 88.6992 182.151 88.9188C182.154 89.1383 182.113 89.3562 182.031 89.56C181.949 89.7638 181.828 89.9496 181.674 90.1066C181.52 90.2636 181.337 90.3888 181.135 90.4751C180.933 90.5614 180.715 90.6071 180.496 90.6096Z" fill="#ECF3FE"/>
<path d="M180.572 98.1837L101.842 99.0432C101.622 99.0457 101.403 99.005 101.199 98.9232C100.995 98.8415 100.809 98.7204 100.652 98.5669C100.495 98.4134 100.369 98.2305 100.283 98.0286C100.196 97.8267 100.151 97.6098 100.148 97.3902C100.146 97.1706 100.186 96.9528 100.268 96.749C100.35 96.5452 100.471 96.3595 100.625 96.2024C100.779 96.0454 100.962 95.9202 101.164 95.8339C101.366 95.7476 101.584 95.7019 101.804 95.6994L180.543 94.8398C180.986 94.8397 181.411 95.0127 181.728 95.3216C182.044 95.6306 182.227 96.051 182.237 96.4929C182.239 96.9372 182.066 97.3644 181.754 97.6812C181.442 97.9981 181.017 98.1787 180.572 98.1837Z" fill="#ECF3FE"/>
<path d="M180.657 105.768L101.926 106.627C101.707 106.63 101.488 106.589 101.284 106.507C101.08 106.426 100.894 106.305 100.737 106.151C100.58 105.998 100.454 105.815 100.368 105.613C100.281 105.411 100.235 105.194 100.233 104.974C100.231 104.755 100.271 104.537 100.353 104.333C100.435 104.129 100.556 103.944 100.71 103.787C100.864 103.63 101.047 103.504 101.249 103.418C101.451 103.332 101.669 103.286 101.889 103.284L180.619 102.424C180.839 102.421 181.057 102.462 181.261 102.544C181.465 102.626 181.651 102.747 181.808 102.9C181.966 103.054 182.091 103.237 182.178 103.439C182.264 103.64 182.31 103.857 182.312 104.077C182.315 104.297 182.274 104.514 182.192 104.718C182.11 104.922 181.989 105.108 181.835 105.265C181.681 105.422 181.498 105.547 181.296 105.633C181.094 105.72 180.877 105.765 180.657 105.768Z" fill="#ECF3FE"/>
<path d="M180.742 113.344L102.011 114.204C101.791 114.206 101.573 114.165 101.369 114.084C101.165 114.002 100.979 113.881 100.822 113.727C100.665 113.574 100.539 113.391 100.453 113.189C100.366 112.987 100.32 112.77 100.318 112.551C100.315 112.331 100.356 112.113 100.438 111.909C100.52 111.705 100.641 111.52 100.795 111.363C100.949 111.206 101.132 111.08 101.334 110.994C101.536 110.908 101.754 110.862 101.974 110.86L180.704 110C180.924 109.998 181.142 110.038 181.346 110.12C181.55 110.202 181.736 110.323 181.893 110.476C182.051 110.63 182.176 110.813 182.262 111.015C182.349 111.217 182.395 111.434 182.397 111.653C182.4 111.873 182.359 112.091 182.277 112.294C182.195 112.498 182.074 112.684 181.92 112.841C181.766 112.998 181.583 113.123 181.381 113.21C181.179 113.296 180.961 113.342 180.742 113.344Z" fill="#ECF3FE"/>
<path d="M180.826 120.93L102.087 121.79C101.643 121.792 101.217 121.62 100.9 121.311C100.583 121.001 100.401 120.579 100.393 120.137C100.391 119.917 100.432 119.699 100.513 119.495C100.595 119.292 100.717 119.106 100.87 118.949C101.024 118.792 101.207 118.667 101.409 118.58C101.612 118.494 101.829 118.448 102.049 118.446L180.788 117.586C181.009 117.582 181.227 117.622 181.432 117.704C181.637 117.785 181.823 117.906 181.981 118.06C182.138 118.213 182.264 118.397 182.35 118.599C182.436 118.802 182.481 119.019 182.482 119.239C182.484 119.682 182.312 120.108 182.002 120.424C181.692 120.741 181.27 120.923 180.826 120.93Z" fill="#ECF3FE"/>
<path d="M124.76 37.51L101.193 37.7745C100.751 37.7746 100.326 37.6016 100.009 37.2927C99.6927 36.9837 99.5099 36.5633 99.5 36.1214C99.4975 35.6771 99.6712 35.2499 99.9832 34.9331C100.295 34.6162 100.72 34.4356 101.165 34.4306L124.722 34.1661C124.942 34.1636 125.16 34.2044 125.364 34.2861C125.568 34.3679 125.754 34.4889 125.911 34.6424C126.069 34.7959 126.194 34.9789 126.28 35.1808C126.367 35.3827 126.413 35.5996 126.415 35.8192C126.418 36.0387 126.377 36.2566 126.295 36.4604C126.213 36.6642 126.092 36.85 125.938 37.007C125.784 37.164 125.601 37.2892 125.399 37.3755C125.197 37.4618 124.979 37.5075 124.76 37.51Z" fill="#ECF3FE"/>
<path d="M180.017 44.4905L111.022 45.2461C110.802 45.2486 110.584 45.2078 110.379 45.1261C110.175 45.0444 109.989 44.9233 109.832 44.7698C109.675 44.6163 109.549 44.4334 109.463 44.2315C109.376 44.0296 109.331 43.8127 109.328 43.5931C109.326 43.3735 109.367 43.1556 109.448 42.9518C109.53 42.748 109.652 42.5623 109.805 42.4053C109.959 42.2483 110.142 42.1231 110.344 42.0368C110.547 41.9504 110.764 41.9047 110.984 41.9023L179.979 41.1466C180.199 41.1441 180.417 41.1849 180.621 41.2666C180.826 41.3484 181.012 41.4694 181.169 41.6229C181.326 41.7764 181.451 41.9593 181.538 42.1612C181.624 42.3631 181.67 42.5801 181.673 42.7996C181.675 43.0192 181.634 43.2371 181.552 43.4409C181.471 43.6447 181.349 43.8304 181.196 43.9874C181.042 44.1444 180.859 44.2697 180.656 44.356C180.454 44.4423 180.237 44.488 180.017 44.4905Z" fill="#ECF3FE"/>
<path d="M180.094 52.0645L101.363 52.9241C101.144 52.9266 100.925 52.8858 100.721 52.8041C100.517 52.7224 100.331 52.6013 100.174 52.4478C100.017 52.2943 99.8912 52.1114 99.8047 51.9095C99.7183 51.7076 99.6725 51.4906 99.67 51.2711C99.6675 51.0515 99.7084 50.8336 99.7902 50.6298C99.8721 50.426 99.9934 50.2403 100.147 50.0833C100.301 49.9263 100.484 49.801 100.686 49.7147C100.888 49.6284 101.106 49.5827 101.326 49.5803L180.065 48.7207C180.508 48.7206 180.933 48.8935 181.25 49.2025C181.566 49.5114 181.749 49.9319 181.759 50.3737C181.761 50.818 181.588 51.2453 181.276 51.5621C180.964 51.8789 180.539 52.0596 180.094 52.0645Z" fill="#ECF3FE"/>
<path d="M180.179 59.6506L101.448 60.5102C101.228 60.5127 101.01 60.4719 100.806 60.3902C100.602 60.3084 100.416 60.1874 100.259 60.0339C100.102 59.8804 99.9761 59.6975 99.8896 59.4956C99.8032 59.2936 99.7575 59.0767 99.755 58.8571C99.7525 58.6376 99.7934 58.4197 99.8752 58.2159C99.9571 58.0121 100.078 57.8264 100.232 57.6694C100.386 57.5123 100.569 57.3871 100.771 57.3008C100.973 57.2145 101.191 57.1688 101.411 57.1663L180.141 56.3067C180.361 56.3043 180.579 56.345 180.783 56.4268C180.987 56.5085 181.173 56.6295 181.33 56.7831C181.488 56.9366 181.613 57.1195 181.699 57.3214C181.786 57.5233 181.832 57.7402 181.834 57.9598C181.837 58.1793 181.796 58.3973 181.714 58.6011C181.632 58.8049 181.511 58.9906 181.357 59.1476C181.203 59.3046 181.02 59.4298 180.818 59.5161C180.616 59.6024 180.399 59.6481 180.179 59.6506Z" fill="#ECF3FE"/>
<path d="M180.265 67.2268L101.535 68.0864C101.315 68.0889 101.097 68.0481 100.893 67.9664C100.688 67.8846 100.502 67.7636 100.345 67.6101C100.188 67.4566 100.063 67.2736 99.9761 67.0717C99.8896 66.8698 99.8439 66.6529 99.8414 66.4333C99.8389 66.2138 99.8797 65.9959 99.9616 65.7921C100.043 65.5883 100.165 65.4025 100.318 65.2455C100.472 65.0885 100.655 64.9633 100.858 64.877C101.06 64.7907 101.277 64.745 101.497 64.7425L180.227 63.8829C180.447 63.8804 180.665 63.9212 180.869 64.0029C181.074 64.0847 181.26 64.2057 181.417 64.3592C181.574 64.5127 181.699 64.6957 181.786 64.8976C181.872 65.0995 181.918 65.3164 181.921 65.536C181.923 65.7555 181.882 65.9734 181.8 66.1772C181.719 66.381 181.597 66.5668 181.444 66.7238C181.29 66.8808 181.107 67.006 180.904 67.0923C180.702 67.1786 180.485 67.2243 180.265 67.2268Z" fill="#ECF3FE"/>
<path d="M180.349 74.8109L101.61 75.6705C101.166 75.673 100.74 75.5009 100.423 75.1914C100.106 74.8819 99.9236 74.4601 99.9161 74.0174C99.9136 73.7979 99.9545 73.58 100.036 73.3762C100.118 73.1724 100.239 72.9867 100.393 72.8296C100.547 72.6726 100.73 72.5474 100.932 72.4611C101.135 72.3748 101.352 72.3291 101.572 72.3266L180.311 71.467C180.532 71.4633 180.75 71.5032 180.955 71.5845C181.16 71.6658 181.346 71.7868 181.504 71.9405C181.661 72.0943 181.787 72.2777 181.873 72.4802C181.959 72.6827 182.004 72.9001 182.005 73.1201C182.007 73.5628 181.835 73.9886 181.525 74.3052C181.215 74.6217 180.793 74.8034 180.349 74.8109Z" fill="#ECF3FE"/>
<path d="M155.615 88.7108C153.877 86.2903 151.613 84.2945 148.992 82.8733C144.596 80.5216 139.676 79.3163 134.688 79.3688C124.745 79.3688 114.689 83.6478 106.363 91.4313C100.233 97.1649 96.6475 104.797 96.5151 112.382C96.3448 117.862 98.1813 123.215 101.681 127.439C101.519 127.559 101.37 127.695 101.236 127.845L83.9137 146.104C83.7936 146.225 83.6858 146.358 83.592 146.501C83.153 146.918 82.8208 147.434 82.6232 148.006C82.4257 148.578 82.3686 149.189 82.4568 149.788C83.4029 156.051 89.1926 159.083 92.4754 159.895C92.7696 159.966 93.0715 160.001 93.3742 159.999C93.8849 160 94.3904 159.897 94.8602 159.697C95.3301 159.498 95.7547 159.205 96.1083 158.837L96.3353 158.601C96.3353 158.554 96.4205 158.507 96.4583 158.45C96.5016 158.415 96.5427 158.377 96.5813 158.337L114.859 139.265C115.27 138.838 115.575 138.32 115.748 137.754C119.342 139.042 123.132 139.697 126.949 139.69C136.325 139.69 145.719 135.799 153.439 128.743C156.383 126.025 158.741 122.736 160.368 119.076C161.995 115.417 162.856 111.464 162.899 107.461C162.995 104.009 162.4 100.573 161.149 97.3532C159.898 94.1336 158.017 91.1955 155.615 88.7108Z" fill="white"/>
<path d="M148.927 88.4658C146.129 86.8871 143.079 85.8037 139.911 85.2637C141.891 85.7228 143.801 86.4473 145.587 87.4173C156.192 93.1982 156.94 110.229 146.098 120.327C135.256 130.425 122.324 132.937 110.999 126.183C100.593 119.977 99.9496 104.675 110.753 94.5774C111.614 93.7745 112.504 93.0188 113.402 92.3103C112.111 93.2677 110.876 94.299 109.703 95.3991C97.8116 106.517 99.0603 123.964 111.104 131.407C124.187 139.493 139.627 136.13 150.705 125.976C162.663 114.962 161.159 95.4275 148.927 88.4658Z" fill="url(#paint1_linear_1729_6729)"/>
<path d="M113.961 98.3263C124.367 88.512 137.877 85.9899 147.621 91.2324C148.643 91.7853 149.596 92.4575 150.459 93.235C149.157 91.3027 147.408 89.7119 145.36 88.597C135.616 83.3545 122.106 85.8766 111.709 95.6909C102.334 104.542 101.965 117.416 109.382 124.255C104.434 117.095 105.673 106.138 113.961 98.3263Z" fill="url(#paint2_linear_1729_6729)"/>
<path d="M146.977 86.1782C135.965 80.2179 120.61 83.0611 108.718 94.1789C96.8266 105.297 97.4605 122.082 108.87 128.845C121.273 136.213 135.52 133.398 147.412 122.233C159.304 111.068 158.585 92.4787 146.977 86.1782ZM145.681 120.325C134.877 130.423 121.906 132.935 110.582 126.182C100.176 119.976 99.5323 104.673 110.327 94.5757C121.121 84.478 135.123 81.937 145.17 87.4157C155.813 93.1966 156.475 110.228 145.681 120.325Z" fill="url(#paint3_linear_1729_6729)"/>
<path d="M105.512 132.576L108.445 129.449L111.075 131.405L107.272 134.729L105.512 132.576Z" fill="url(#paint4_linear_1729_6729)"/>
<path d="M93.6765 155.737L111.964 136.656C109.608 131.933 103.752 130.422 103.752 130.422L86.4771 148.69C88.6908 149.899 92.2101 152.27 93.6765 155.737Z" fill="url(#paint5_linear_1729_6729)"/>
<path d="M86.0142 149.229C86.8278 154.669 93.2042 156.237 93.2042 156.237L93.4312 156.001C91.6579 153.082 89.0839 150.732 86.0142 149.229Z" fill="url(#paint6_linear_1729_6729)"/>
<path d="M128.915 118.983C128.784 118.933 128.67 118.846 128.585 118.733C128.501 118.62 128.451 118.485 128.439 118.344L127.224 111.909L126.913 111.695L120.674 112.99C120.526 113.059 120.365 113.091 120.204 113.084C120.043 113.077 119.886 113.031 119.747 112.951C119.609 112.87 119.491 112.757 119.406 112.621C119.32 112.485 119.268 112.329 119.255 112.168L118.565 108.738C118.535 108.587 118.536 108.431 118.568 108.279C118.599 108.127 118.661 107.983 118.75 107.855C118.838 107.727 118.951 107.618 119.081 107.534C119.212 107.45 119.357 107.394 119.509 107.368L125.925 106.038C126.101 106.004 126.101 106.005 126.07 105.828L124.854 99.3929C124.825 99.2417 124.826 99.0856 124.858 98.9338C124.889 98.782 124.951 98.6379 125.039 98.5099C125.128 98.3819 125.24 98.2727 125.371 98.189C125.502 98.1054 125.647 98.0488 125.799 98.0229L129.147 97.3769C129.297 97.3444 129.453 97.3429 129.603 97.3724C129.753 97.4019 129.895 97.4618 130.021 97.5485C130.147 97.6352 130.254 97.7469 130.335 97.8769C130.416 98.0069 130.469 98.1525 130.493 98.3049L131.708 104.74L131.915 104.883L138.227 103.482C138.554 103.422 138.889 103.493 139.16 103.68C139.431 103.867 139.616 104.155 139.677 104.481L140.336 107.734C140.366 107.885 140.365 108.042 140.333 108.193C140.301 108.345 140.24 108.489 140.151 108.617C140.063 108.745 139.95 108.854 139.82 108.938C139.689 109.022 139.544 109.078 139.392 109.104L132.976 110.434C132.8 110.468 132.8 110.468 132.831 110.644L134.046 117.079C134.076 117.23 134.075 117.386 134.043 117.538C134.012 117.69 133.95 117.834 133.861 117.962C133.773 118.09 133.66 118.199 133.53 118.283C133.399 118.367 133.254 118.423 133.102 118.449L129.682 119.201L128.915 118.983Z" fill="#E54164"/>
<path d="M191.176 47.3226C190.781 47.335 190.397 47.1932 190.104 46.927L184.518 41.4453C184.405 41.3322 184.349 41.3322 184.179 41.5018C182.374 43.3102 180.568 45.1751 178.818 47.04C178.691 47.1843 178.535 47.2999 178.36 47.3791C178.185 47.4583 177.995 47.4992 177.803 47.4992C177.611 47.4992 177.421 47.4583 177.246 47.3791C177.07 47.2999 176.914 47.1843 176.787 47.04L173.909 44.2144C173.763 44.0965 173.644 43.9482 173.56 43.7797C173.476 43.6112 173.43 43.4265 173.425 43.2385C173.42 43.0504 173.455 42.8634 173.529 42.6904C173.603 42.5174 173.713 42.3625 173.853 42.2364L179.326 36.6417C179.439 36.5287 179.439 36.4721 179.326 36.3591L173.74 30.9904C173.587 30.8687 173.464 30.714 173.379 30.5379C173.294 30.3617 173.25 30.1687 173.25 29.9732C173.25 29.7776 173.294 29.5846 173.379 29.4085C173.464 29.2323 173.587 29.0777 173.74 28.9559L176.505 26.0738C176.626 25.9208 176.781 25.7972 176.957 25.7122C177.133 25.6273 177.325 25.5831 177.521 25.5831C177.716 25.5831 177.909 25.6273 178.084 25.7122C178.26 25.7972 178.415 25.9208 178.536 26.0738L184.066 31.4425C184.179 31.612 184.236 31.5555 184.405 31.4425C186.154 29.5776 187.96 27.7692 189.766 25.9043C189.889 25.7563 190.042 25.6363 190.215 25.5522C190.388 25.4681 190.576 25.4219 190.769 25.4165C190.961 25.4112 191.152 25.4469 191.329 25.5212C191.507 25.5956 191.666 25.7069 191.797 25.8477L194.675 28.7299C194.82 28.8423 194.939 28.9856 195.022 29.1494C195.105 29.3132 195.152 29.4935 195.157 29.6772C195.162 29.861 195.127 30.0437 195.053 30.2122C194.98 30.3806 194.87 30.5306 194.731 30.6513L189.258 36.2461C189.145 36.3591 189.145 36.4156 189.258 36.5286L194.844 41.9539C194.996 42.0699 195.12 42.2195 195.204 42.391C195.289 42.5626 195.333 42.7514 195.333 42.9428C195.333 43.1343 195.289 43.3231 195.204 43.4947C195.12 43.6662 194.996 43.8158 194.844 43.9318C193.941 44.949 192.982 45.9098 192.023 46.8705C191.919 46.9983 191.79 47.1041 191.645 47.1817C191.5 47.2593 191.34 47.3072 191.176 47.3226Z" fill="#E54164"/>
<path d="M98.9596 75.6548C98.8569 75.6792 98.7494 75.6745 98.6493 75.6411C98.5491 75.6078 98.4603 75.5472 98.3928 75.4662L94.8974 72.0696H94.614L91.3076 75.4662C91.2455 75.5694 91.1595 75.6561 91.0569 75.7194C90.9544 75.7826 90.8381 75.8205 90.7179 75.8297C90.5977 75.839 90.4771 75.8193 90.366 75.7725C90.2549 75.7256 90.1567 75.653 90.0795 75.5605L88.1901 73.7679C88.1073 73.6886 88.0413 73.5934 87.9962 73.488C87.9512 73.3827 87.928 73.2692 87.928 73.1546C87.928 73.04 87.9512 72.9266 87.9962 72.8212C88.0413 72.7158 88.1073 72.6206 88.1901 72.5413L91.591 69.0504C91.6855 68.9561 91.6855 68.9561 91.591 68.8618L88.0957 65.4652C88.0128 65.3859 87.9468 65.2907 87.9018 65.1853C87.8567 65.0799 87.8335 64.9666 87.8335 64.852C87.8335 64.7374 87.8567 64.6239 87.9018 64.5185C87.9468 64.4131 88.0128 64.3179 88.0957 64.2387L89.8906 62.446C89.9699 62.3633 90.0653 62.2974 90.1708 62.2524C90.2763 62.2074 90.3899 62.1842 90.5046 62.1842C90.6194 62.1842 90.7329 62.2074 90.8385 62.2524C90.944 62.2974 91.0393 62.3633 91.1187 62.446L94.614 65.8426H94.803L98.1094 62.3517C98.286 62.1788 98.5234 62.082 98.7707 62.082C99.0179 62.082 99.2554 62.1788 99.4319 62.3517L101.227 64.05C101.31 64.1292 101.376 64.2244 101.421 64.3298C101.466 64.4352 101.489 64.5487 101.489 64.6633C101.489 64.7779 101.466 64.8913 101.421 64.9967C101.376 65.1021 101.31 65.1972 101.227 65.2765L97.826 68.7674C97.7315 68.8617 97.7315 68.8618 97.826 68.9561L101.321 72.3526C101.404 72.4319 101.47 72.5271 101.515 72.6325C101.56 72.7379 101.583 72.8513 101.583 72.9659C101.583 73.0805 101.56 73.1939 101.515 73.2993C101.47 73.4047 101.404 73.4999 101.321 73.5792L99.5264 75.4662L98.9596 75.6548Z" fill="#E54164"/>
<path d="M150.768 137.735H150.449L148.772 136.042H148.612L147.015 137.735C146.856 137.977 146.616 137.977 146.377 137.735L145.498 136.848C145.425 136.773 145.384 136.672 145.384 136.566C145.384 136.46 145.425 136.359 145.498 136.284L147.175 134.591L145.498 132.897C145.448 132.869 145.407 132.828 145.378 132.779C145.349 132.729 145.333 132.673 145.333 132.615C145.333 132.557 145.349 132.501 145.378 132.451C145.407 132.402 145.448 132.361 145.498 132.333L146.297 131.446C146.536 131.204 146.696 131.204 146.936 131.446L148.612 133.059C148.612 133.139 148.692 133.139 148.692 133.059L150.369 131.365C150.444 131.291 150.544 131.25 150.648 131.25C150.753 131.25 150.853 131.291 150.928 131.365L151.806 132.252C151.856 132.28 151.898 132.321 151.927 132.371C151.956 132.42 151.971 132.477 151.971 132.534C151.971 132.592 151.956 132.649 151.927 132.698C151.898 132.748 151.856 132.789 151.806 132.817L150.209 134.51C150.129 134.591 150.129 134.591 150.209 134.591L151.886 136.284C151.959 136.359 152 136.46 152 136.566C152 136.672 151.959 136.773 151.886 136.848L151.008 137.816L150.768 137.735Z" fill="#E54164"/>
<path d="M164.858 44.8065H164.518L162.737 43.0074H162.567L160.87 44.8065C160.701 45.0636 160.446 45.0636 160.192 44.8065L159.259 43.8642C159.181 43.7841 159.137 43.6764 159.137 43.5643C159.137 43.4522 159.181 43.3445 159.259 43.2645L161.04 41.4653L159.259 39.6662C159.206 39.6366 159.161 39.5931 159.131 39.5404C159.1 39.4877 159.083 39.4276 159.083 39.3664C159.083 39.3052 159.1 39.245 159.131 39.1923C159.161 39.1396 159.206 39.0961 159.259 39.0665L160.107 38.1241C160.361 37.8671 160.531 37.8671 160.786 38.1241L162.567 39.8376C162.567 39.9232 162.652 39.9232 162.652 39.8376L164.434 38.0384C164.513 37.9599 164.62 37.916 164.731 37.916C164.842 37.916 164.948 37.9599 165.028 38.0384C165.359 38.3307 165.671 38.6456 165.961 38.9809C166.014 39.0105 166.058 39.0539 166.089 39.1067C166.12 39.1594 166.136 39.2195 166.136 39.2807C166.136 39.3419 166.12 39.402 166.089 39.4548C166.058 39.5075 166.014 39.5509 165.961 39.5806L164.264 41.3797C164.179 41.4653 164.179 41.4653 164.264 41.4653L166.046 43.2645C166.123 43.3445 166.167 43.4522 166.167 43.5643C166.167 43.6764 166.123 43.7841 166.046 43.8642L165.112 44.8922L164.858 44.8065Z" fill="#E89292"/>
<path d="M190.171 118.626C190.099 118.643 190.025 118.64 189.955 118.616C189.885 118.593 189.823 118.551 189.776 118.494L187.34 116.127H187.142L184.838 118.494C184.795 118.566 184.735 118.627 184.663 118.671C184.592 118.715 184.511 118.741 184.427 118.748C184.343 118.754 184.259 118.74 184.182 118.708C184.104 118.675 184.036 118.625 183.982 118.56L182.665 117.311C182.607 117.255 182.561 117.189 182.53 117.116C182.499 117.042 182.482 116.963 182.482 116.883C182.482 116.803 182.499 116.724 182.53 116.651C182.561 116.577 182.607 116.511 182.665 116.456L185.035 114.023C185.101 113.957 185.101 113.957 185.035 113.891L182.599 111.524C182.541 111.469 182.495 111.402 182.464 111.329C182.433 111.255 182.417 111.176 182.417 111.097C182.417 111.017 182.433 110.938 182.464 110.864C182.495 110.791 182.541 110.724 182.599 110.669L183.85 109.42C183.906 109.362 183.972 109.316 184.046 109.285C184.119 109.253 184.198 109.237 184.278 109.237C184.358 109.237 184.437 109.253 184.511 109.285C184.584 109.316 184.651 109.362 184.706 109.42L187.142 111.787H187.274L189.578 109.354C189.702 109.233 189.867 109.166 190.039 109.166C190.212 109.166 190.377 109.233 190.5 109.354L191.751 110.538C191.809 110.593 191.855 110.659 191.886 110.733C191.918 110.806 191.934 110.885 191.934 110.965C191.934 111.045 191.918 111.124 191.886 111.197C191.855 111.271 191.809 111.337 191.751 111.392L189.381 113.826C189.315 113.891 189.315 113.891 189.381 113.957L191.817 116.324C191.875 116.38 191.921 116.446 191.952 116.519C191.984 116.593 192 116.672 192 116.752C192 116.832 191.984 116.911 191.952 116.984C191.921 117.058 191.875 117.124 191.817 117.179L190.566 118.494L190.171 118.626Z" fill="#E89292"/>
<path d="M147.678 110.493C145.038 116.453 139.844 120.288 133.487 122.102C131.992 122.536 126.808 122.536 129.504 120.212C140.856 110.54 143.978 103.758 144.906 102.36C145.606 101.311 145.946 98.9024 147.687 98.9968C148.851 99.063 148.917 102.057 148.974 102.662C149.244 105.341 148.797 108.043 147.678 110.493Z" fill="#E4F8F9" fill-opacity="0.64"/>
<path d="M5.11328 192.441H6.10938C7.04036 192.441 7.73698 192.259 8.19922 191.895C8.66146 191.523 8.89258 190.986 8.89258 190.283C8.89258 189.574 8.69727 189.049 8.30664 188.711C7.92253 188.372 7.31706 188.203 6.49023 188.203H5.11328V192.441ZM11.9492 190.176C11.9492 191.712 11.4674 192.887 10.5039 193.701C9.54688 194.515 8.18294 194.922 6.41211 194.922H5.11328V200H2.08594V185.723H6.64648C8.37826 185.723 9.69336 186.097 10.5918 186.846C11.4967 187.588 11.9492 188.698 11.9492 190.176ZM18.9316 190.996C18.3001 190.996 17.8053 191.198 17.4473 191.602C17.0892 191.999 16.8841 192.565 16.832 193.301H21.0117C20.9987 192.565 20.8066 191.999 20.4355 191.602C20.0645 191.198 19.5632 190.996 18.9316 190.996ZM19.3516 200.195C17.5938 200.195 16.2201 199.71 15.2305 198.74C14.2409 197.77 13.7461 196.396 13.7461 194.619C13.7461 192.79 14.2018 191.377 15.1133 190.381C16.0312 189.378 17.2975 188.877 18.9121 188.877C20.4551 188.877 21.6562 189.316 22.5156 190.195C23.375 191.074 23.8047 192.288 23.8047 193.838V195.283H16.7637C16.7962 196.13 17.0469 196.79 17.5156 197.266C17.9844 197.741 18.6419 197.979 19.4883 197.979C20.1458 197.979 20.7676 197.91 21.3535 197.773C21.9395 197.637 22.5514 197.419 23.1895 197.119V199.424C22.6686 199.684 22.112 199.876 21.5195 200C20.9271 200.13 20.2044 200.195 19.3516 200.195ZM36.3047 200H33.3262V193.623C33.3262 192.835 33.1862 192.246 32.9062 191.855C32.6263 191.458 32.1803 191.26 31.5684 191.26C30.735 191.26 30.1328 191.54 29.7617 192.1C29.3906 192.653 29.2051 193.574 29.2051 194.863V200H26.2266V189.082H28.502L28.9023 190.479H29.0684C29.4004 189.951 29.8561 189.554 30.4355 189.287C31.0215 189.014 31.6855 188.877 32.4277 188.877C33.6973 188.877 34.6608 189.222 35.3184 189.912C35.9759 190.596 36.3047 191.585 36.3047 192.881V200ZM43.8047 200.195C40.4062 200.195 38.707 198.33 38.707 194.6C38.707 192.744 39.1693 191.328 40.0938 190.352C41.0182 189.368 42.3431 188.877 44.0684 188.877C45.3314 188.877 46.4642 189.124 47.4668 189.619L46.5879 191.924C46.1191 191.735 45.6829 191.582 45.2793 191.465C44.8757 191.341 44.472 191.279 44.0684 191.279C42.5189 191.279 41.7441 192.38 41.7441 194.58C41.7441 196.715 42.5189 197.783 44.0684 197.783C44.6413 197.783 45.1719 197.708 45.6602 197.559C46.1484 197.402 46.6367 197.161 47.125 196.836V199.385C46.6432 199.691 46.1549 199.902 45.6602 200.02C45.1719 200.137 44.5534 200.195 43.8047 200.195ZM56.5977 200L56.0215 198.516H55.9434C55.4421 199.147 54.9245 199.587 54.3906 199.834C53.8633 200.075 53.1732 200.195 52.3203 200.195C51.2721 200.195 50.4453 199.896 49.8398 199.297C49.2409 198.698 48.9414 197.845 48.9414 196.738C48.9414 195.579 49.3451 194.727 50.1523 194.18C50.9661 193.626 52.1901 193.32 53.8242 193.262L55.7188 193.203V192.725C55.7188 191.618 55.1523 191.064 54.0195 191.064C53.1471 191.064 52.1217 191.328 50.9434 191.855L49.957 189.844C51.2135 189.186 52.6068 188.857 54.1367 188.857C55.6016 188.857 56.7246 189.176 57.5059 189.814C58.2871 190.452 58.6777 191.423 58.6777 192.725V200H56.5977ZM55.7188 194.941L54.5664 194.98C53.7005 195.007 53.056 195.163 52.6328 195.449C52.2096 195.736 51.998 196.172 51.998 196.758C51.998 197.598 52.4798 198.018 53.4434 198.018C54.1335 198.018 54.6836 197.819 55.0938 197.422C55.5104 197.025 55.7188 196.497 55.7188 195.84V194.941ZM67.8477 188.877C68.2513 188.877 68.5866 188.906 68.8535 188.965L68.6289 191.758C68.388 191.693 68.0951 191.66 67.75 191.66C66.7995 191.66 66.0573 191.904 65.5234 192.393C64.9961 192.881 64.7324 193.564 64.7324 194.443V200H61.7539V189.082H64.0098L64.4492 190.918H64.5957C64.9342 190.306 65.39 189.814 65.9629 189.443C66.5423 189.066 67.1706 188.877 67.8477 188.877ZM70.709 186.26C70.709 185.29 71.2493 184.805 72.3301 184.805C73.4108 184.805 73.9512 185.29 73.9512 186.26C73.9512 186.722 73.8145 187.083 73.541 187.344C73.2741 187.598 72.8704 187.725 72.3301 187.725C71.2493 187.725 70.709 187.236 70.709 186.26ZM73.8145 200H70.8359V189.082H73.8145V200ZM83.8828 200L83.3066 198.516H83.2285C82.7272 199.147 82.2096 199.587 81.6758 199.834C81.1484 200.075 80.4583 200.195 79.6055 200.195C78.5573 200.195 77.7305 199.896 77.125 199.297C76.526 198.698 76.2266 197.845 76.2266 196.738C76.2266 195.579 76.6302 194.727 77.4375 194.18C78.2513 193.626 79.4753 193.32 81.1094 193.262L83.0039 193.203V192.725C83.0039 191.618 82.4375 191.064 81.3047 191.064C80.4323 191.064 79.4069 191.328 78.2285 191.855L77.2422 189.844C78.4987 189.186 79.8919 188.857 81.4219 188.857C82.8867 188.857 84.0098 189.176 84.791 189.814C85.5723 190.452 85.9629 191.423 85.9629 192.725V200H83.8828ZM83.0039 194.941L81.8516 194.98C80.9857 195.007 80.3411 195.163 79.918 195.449C79.4948 195.736 79.2832 196.172 79.2832 196.758C79.2832 197.598 79.765 198.018 80.7285 198.018C81.4186 198.018 81.9688 197.819 82.3789 197.422C82.7956 197.025 83.0039 196.497 83.0039 195.84V194.941ZM99.1172 200H96.1387V193.623C96.1387 192.835 95.9987 192.246 95.7188 191.855C95.4388 191.458 94.9928 191.26 94.3809 191.26C93.5475 191.26 92.9453 191.54 92.5742 192.1C92.2031 192.653 92.0176 193.574 92.0176 194.863V200H89.0391V189.082H91.3145L91.7148 190.479H91.8809C92.2129 189.951 92.6686 189.554 93.248 189.287C93.834 189.014 94.498 188.877 95.2402 188.877C96.5098 188.877 97.4733 189.222 98.1309 189.912C98.7884 190.596 99.1172 191.585 99.1172 192.881V200ZM113.121 200H110.094V188.242H106.217V185.723H116.998V188.242H113.121V200ZM118.834 186.26C118.834 185.29 119.374 184.805 120.455 184.805C121.536 184.805 122.076 185.29 122.076 186.26C122.076 186.722 121.939 187.083 121.666 187.344C121.399 187.598 120.995 187.725 120.455 187.725C119.374 187.725 118.834 187.236 118.834 186.26ZM121.939 200H118.961V189.082H121.939V200ZM128.531 200.195C127.249 200.195 126.24 199.697 125.504 198.701C124.775 197.705 124.41 196.325 124.41 194.561C124.41 192.77 124.781 191.377 125.523 190.381C126.272 189.378 127.301 188.877 128.609 188.877C129.983 188.877 131.031 189.411 131.754 190.479H131.852C131.702 189.665 131.627 188.939 131.627 188.301V184.805H134.615V200H132.33L131.754 198.584H131.627C130.95 199.658 129.918 200.195 128.531 200.195ZM129.576 197.822C130.338 197.822 130.895 197.601 131.246 197.158C131.604 196.715 131.799 195.964 131.832 194.902V194.58C131.832 193.408 131.65 192.568 131.285 192.061C130.927 191.553 130.341 191.299 129.527 191.299C128.863 191.299 128.346 191.582 127.975 192.148C127.61 192.708 127.428 193.525 127.428 194.6C127.428 195.674 127.613 196.481 127.984 197.021C128.355 197.555 128.886 197.822 129.576 197.822ZM144.664 200L144.088 198.516H144.01C143.508 199.147 142.991 199.587 142.457 199.834C141.93 200.075 141.24 200.195 140.387 200.195C139.339 200.195 138.512 199.896 137.906 199.297C137.307 198.698 137.008 197.845 137.008 196.738C137.008 195.579 137.411 194.727 138.219 194.18C139.033 193.626 140.257 193.32 141.891 193.262L143.785 193.203V192.725C143.785 191.618 143.219 191.064 142.086 191.064C141.214 191.064 140.188 191.328 139.01 191.855L138.023 189.844C139.28 189.186 140.673 188.857 142.203 188.857C143.668 188.857 144.791 189.176 145.572 189.814C146.354 190.452 146.744 191.423 146.744 192.725V200H144.664ZM143.785 194.941L142.633 194.98C141.767 195.007 141.122 195.163 140.699 195.449C140.276 195.736 140.064 196.172 140.064 196.758C140.064 197.598 140.546 198.018 141.51 198.018C142.2 198.018 142.75 197.819 143.16 197.422C143.577 197.025 143.785 196.497 143.785 195.84V194.941ZM152.682 194.062L153.98 192.402L157.037 189.082H160.396L156.061 193.818L160.66 200H157.223L154.078 195.576L152.799 196.602V200H149.82V184.805H152.799V191.582L152.643 194.062H152.682ZM179.498 192.725C179.498 195.075 178.827 196.875 177.486 198.125C176.152 199.375 174.221 200 171.695 200H167.652V185.723H172.135C174.465 185.723 176.275 186.338 177.564 187.568C178.854 188.799 179.498 190.518 179.498 192.725ZM176.354 192.803C176.354 189.736 174.999 188.203 172.291 188.203H170.68V197.5H171.979C174.895 197.5 176.354 195.934 176.354 192.803ZM182.096 186.26C182.096 185.29 182.636 184.805 183.717 184.805C184.798 184.805 185.338 185.29 185.338 186.26C185.338 186.722 185.201 187.083 184.928 187.344C184.661 187.598 184.257 187.725 183.717 187.725C182.636 187.725 182.096 187.236 182.096 186.26ZM185.201 200H182.223V189.082H185.201V200ZM192.936 197.822C193.456 197.822 194.081 197.708 194.811 197.48V199.697C194.068 200.029 193.157 200.195 192.076 200.195C190.885 200.195 190.016 199.896 189.469 199.297C188.928 198.691 188.658 197.786 188.658 196.582V191.318H187.232V190.059L188.873 189.062L189.732 186.758H191.637V189.082H194.693V191.318H191.637V196.582C191.637 197.005 191.754 197.318 191.988 197.52C192.229 197.721 192.545 197.822 192.936 197.822ZM201.549 190.996C200.917 190.996 200.423 191.198 200.064 191.602C199.706 191.999 199.501 192.565 199.449 193.301H203.629C203.616 192.565 203.424 191.999 203.053 191.602C202.682 191.198 202.18 190.996 201.549 190.996ZM201.969 200.195C200.211 200.195 198.837 199.71 197.848 198.74C196.858 197.77 196.363 196.396 196.363 194.619C196.363 192.79 196.819 191.377 197.73 190.381C198.648 189.378 199.915 188.877 201.529 188.877C203.072 188.877 204.273 189.316 205.133 190.195C205.992 191.074 206.422 192.288 206.422 193.838V195.283H199.381C199.413 196.13 199.664 196.79 200.133 197.266C200.602 197.741 201.259 197.979 202.105 197.979C202.763 197.979 203.385 197.91 203.971 197.773C204.557 197.637 205.169 197.419 205.807 197.119V199.424C205.286 199.684 204.729 199.876 204.137 200C203.544 200.13 202.822 200.195 201.969 200.195ZM218.619 200H215.641V193.623C215.641 192.835 215.507 192.246 215.24 191.855C214.98 191.458 214.566 191.26 214 191.26C213.238 191.26 212.685 191.54 212.34 192.1C211.995 192.66 211.822 193.581 211.822 194.863V200H208.844V189.082H211.119L211.52 190.479H211.686C211.979 189.977 212.402 189.587 212.955 189.307C213.508 189.02 214.143 188.877 214.859 188.877C216.493 188.877 217.6 189.411 218.18 190.479H218.443C218.736 189.971 219.166 189.577 219.732 189.297C220.305 189.017 220.95 188.877 221.666 188.877C222.903 188.877 223.837 189.196 224.469 189.834C225.107 190.465 225.426 191.481 225.426 192.881V200H222.438V193.623C222.438 192.835 222.304 192.246 222.037 191.855C221.777 191.458 221.363 191.26 220.797 191.26C220.068 191.26 219.521 191.52 219.156 192.041C218.798 192.562 218.619 193.389 218.619 194.521V200ZM236.227 200L235.826 198.604H235.67C235.351 199.111 234.898 199.505 234.312 199.785C233.727 200.059 233.059 200.195 232.311 200.195C231.028 200.195 230.061 199.854 229.41 199.17C228.759 198.48 228.434 197.49 228.434 196.201V189.082H231.412V195.459C231.412 196.247 231.552 196.839 231.832 197.236C232.112 197.627 232.558 197.822 233.17 197.822C234.003 197.822 234.605 197.546 234.977 196.992C235.348 196.432 235.533 195.508 235.533 194.219V189.082H238.512V200H236.227ZM244.498 194.062L245.797 192.402L248.854 189.082H252.213L247.877 193.818L252.477 200H249.039L245.895 195.576L244.615 196.602V200H241.637V184.805H244.615V191.582L244.459 194.062H244.498ZM260.973 200L260.396 198.516H260.318C259.817 199.147 259.299 199.587 258.766 199.834C258.238 200.075 257.548 200.195 256.695 200.195C255.647 200.195 254.82 199.896 254.215 199.297C253.616 198.698 253.316 197.845 253.316 196.738C253.316 195.579 253.72 194.727 254.527 194.18C255.341 193.626 256.565 193.32 258.199 193.262L260.094 193.203V192.725C260.094 191.618 259.527 191.064 258.395 191.064C257.522 191.064 256.497 191.328 255.318 191.855L254.332 189.844C255.589 189.186 256.982 188.857 258.512 188.857C259.977 188.857 261.1 189.176 261.881 189.814C262.662 190.452 263.053 191.423 263.053 192.725V200H260.973ZM260.094 194.941L258.941 194.98C258.076 195.007 257.431 195.163 257.008 195.449C256.585 195.736 256.373 196.172 256.373 196.758C256.373 197.598 256.855 198.018 257.818 198.018C258.508 198.018 259.059 197.819 259.469 197.422C259.885 197.025 260.094 196.497 260.094 195.84V194.941ZM276.207 200H273.229V193.623C273.229 192.835 273.089 192.246 272.809 191.855C272.529 191.458 272.083 191.26 271.471 191.26C270.637 191.26 270.035 191.54 269.664 192.1C269.293 192.653 269.107 193.574 269.107 194.863V200H266.129V189.082H268.404L268.805 190.479H268.971C269.303 189.951 269.758 189.554 270.338 189.287C270.924 189.014 271.588 188.877 272.33 188.877C273.6 188.877 274.563 189.222 275.221 189.912C275.878 190.596 276.207 191.585 276.207 192.881V200Z" fill="#E54164"/>
<defs>
<linearGradient id="paint0_linear_1729_6729" x1="99.3908" y1="26.4153" x2="154.391" y2="26.4153" gradientUnits="userSpaceOnUse">
<stop stop-color="#4375C4"/>
<stop offset="0.55" stop-color="#0044AA"/>
<stop offset="1" stop-color="#124DB2"/>
</linearGradient>
<linearGradient id="paint1_linear_1729_6729" x1="107.291" y1="85.9627" x2="200.769" y2="184.646" gradientUnits="userSpaceOnUse">
<stop offset="0.02" stop-color="#FF399E"/>
<stop offset="0.16" stop-color="#FF3B9F"/>
<stop offset="0.23" stop-color="#FF43A3"/>
<stop offset="0.29" stop-color="#FF51AA"/>
<stop offset="0.35" stop-color="#FF64B3"/>
<stop offset="0.39" stop-color="#FF7DC0"/>
<stop offset="0.44" stop-color="#FF9CCF"/>
<stop offset="0.48" stop-color="#FFC8E4"/>
</linearGradient>
<linearGradient id="paint2_linear_1729_6729" x1="106.231" y1="76.7329" x2="144.281" y2="128.751" gradientUnits="userSpaceOnUse">
<stop offset="0.02" stop-color="#FF399E"/>
<stop offset="0.16" stop-color="#FF3B9F"/>
<stop offset="0.23" stop-color="#FF43A3"/>
<stop offset="0.29" stop-color="#FF51AA"/>
<stop offset="0.35" stop-color="#FF64B3"/>
<stop offset="0.39" stop-color="#FF7DC0"/>
<stop offset="0.44" stop-color="#FF9CCF"/>
<stop offset="0.48" stop-color="#FFC8E4"/>
</linearGradient>
<linearGradient id="paint3_linear_1729_6729" x1="100.053" y1="108.036" x2="156.011" y2="108.036" gradientUnits="userSpaceOnUse">
<stop stop-color="#FF399E"/>
<stop offset="0.44" stop-color="#FD389D"/>
<stop offset="0.62" stop-color="#F63597"/>
<stop offset="0.75" stop-color="#EA2F8E"/>
<stop offset="0.85" stop-color="#D92781"/>
<stop offset="0.94" stop-color="#C21D70"/>
<stop offset="1" stop-color="#AF1461"/>
</linearGradient>
<linearGradient id="paint4_linear_1729_6729" x1="105.512" y1="132.094" x2="111.075" y2="132.094" gradientUnits="userSpaceOnUse">
<stop stop-color="#FF8000"/>
<stop offset="0.13" stop-color="#FF9020"/>
<stop offset="0.43" stop-color="#FFB972"/>
<stop offset="0.56" stop-color="#FFCC97"/>
<stop offset="0.72" stop-color="#FFD4A7"/>
<stop offset="1" stop-color="#FFE6CC"/>
</linearGradient>
<linearGradient id="paint5_linear_1729_6729" x1="89.5896" y1="134.2" x2="104.281" y2="147.012" gradientUnits="userSpaceOnUse">
<stop stop-color="#CC6305"/>
<stop offset="0.69" stop-color="#EE7602"/>
<stop offset="1" stop-color="#FF8000"/>
</linearGradient>
<linearGradient id="paint6_linear_1729_6729" x1="87.3481" y1="155.094" x2="90.6634" y2="151.613" gradientUnits="userSpaceOnUse">
<stop stop-color="#CC6305"/>
<stop offset="0.69" stop-color="#EE7602"/>
<stop offset="1" stop-color="#FF8000"/>
</linearGradient>
</defs>
</svg>
