<svg width="24" height="24" viewBox="0 0 24 24" fill="none" xmlns="http://www.w3.org/2000/svg">
<circle cx="12" cy="12" r="12" fill="#3DB9CC"/>
<path d="M12.001 4.14062C12.7011 4.14088 13.2686 4.709 13.2686 5.40918V10.7373H18.5947C19.2949 10.7373 19.863 11.3048 19.8633 12.0049C19.8633 12.7052 19.2951 13.2734 18.5947 13.2734H13.2686V18.5967C13.2686 19.2969 12.7011 19.865 12.001 19.8652C11.3006 19.8652 10.7324 19.297 10.7324 18.5967V13.2734H5.40723C4.70689 13.2734 4.13867 12.7052 4.13867 12.0049C4.13893 11.3048 4.70705 10.7373 5.40723 10.7373H10.7324V5.40918C10.7324 4.70884 11.3006 4.14062 12.001 4.14062Z" fill="white"/>
</svg>
